<svg xmlns="http://www.w3.org/2000/svg" version="1.1" xmlns:xlink="http://www.w3.org/1999/xlink" xmlns:svgjs="http://svgjs.dev/svgjs" width="1500" height="1500" viewBox="0 0 1500 1500"><rect width="1500" height="1500" fill="#000000"></rect><g transform="matrix(0.6666666666666666,0,0,0.6666666666666666,248.53306865438492,681.65338375)"><svg viewBox="0 0 298 40" data-background-color="#ffffff" preserveAspectRatio="xMidYMid meet" height="201" width="1500" xmlns="http://www.w3.org/2000/svg" xmlns:xlink="http://www.w3.org/1999/xlink"><g id="tight-bounds" transform="matrix(1,0,0,1,0.43714554099329916,0.4019749999999931)"><svg viewBox="0 0 297.1257089180134 39.19605" height="39.19605" width="297.1257089180134"><g><svg viewBox="0 0 297.1257089180134 39.19605" height="39.19605" width="297.1257089180134"><g><svg viewBox="0 0 297.1257089180134 39.19605" height="39.19605" width="297.1257089180134"><g id="textblocktransform"><svg viewBox="0 0 297.1257089180134 39.19605" height="39.19605" width="297.1257089180134" id="textblock"><g><svg viewBox="0 0 297.1257089180134 39.19605" height="39.19605" width="297.1257089180134"><g><svg><g></g><g></g></svg></g><g><svg><g><svg></svg></g><g></g></svg></g><g id="text-0"><svg viewBox="0 0 297.1257089180134 39.19605" height="39.19605" width="297.1257089180134"><g transform="matrix(1,0,0,1,0,0)"><svg width="179.21372499999998" viewBox="2.1 -31.7 147.67333333333002 32.3" height="39.19605" data-palette-color="#049a9e"><path d="M3 0.15L3 0.15Q2.5 0.15 2.3-0.2 2.1-0.55 2.1-0.95L2.1-0.95Q2.15-1.8 2.5-1.9 2.85-2 3.35-2L3.35-2Q4.95-2 5.6-2.58 6.25-3.15 6.43-4.03 6.6-4.9 6.6-5.85L6.6-5.85 6.6-25.7Q6.6-26.65 6.43-27.53 6.25-28.4 5.6-28.98 4.95-29.55 3.35-29.55L3.35-29.55Q2.85-29.55 2.5-29.65 2.15-29.75 2.1-30.6L2.1-30.6Q2.1-31 2.3-31.35 2.5-31.7 3-31.7L3-31.7Q4.6-31.65 6-31.6 7.4-31.55 8.9-31.55L8.9-31.55 15.95-31.55Q18.85-31.55 20.53-31.13 22.2-30.7 23.45-29.9L23.45-29.9Q24.75-29.05 25.5-27.58 26.25-26.1 26.25-24.35L26.25-24.35Q26.25-22.1 25.2-20.58 24.15-19.05 22.58-18.18 21-17.3 19.5-16.95L19.5-16.95 19.5-16.8Q22.15-16.85 24.2-15.85 26.25-14.85 27.45-13.2 28.65-11.55 28.7-9.6L28.7-9.6Q28.8-6.75 27.5-4.9 26.2-3.05 24.13-1.95 22.05-0.85 19.63-0.4 17.2 0.05 14.95 0.05L14.95 0.05 8.95 0Q7.45 0 6.03 0.03 4.6 0.05 3 0.15ZM11.55-29.7L11.55-17.8 13.65-17.8Q14.65-17.8 15.9-17.9 17.15-18 18.3-18.53 19.45-19.05 20.18-20.28 20.9-21.5 20.9-23.75L20.9-23.75Q20.9-26.4 19.63-28.05 18.35-29.7 15.05-29.7L15.05-29.7 11.55-29.7ZM15.15-1.95L15.15-1.95Q17.4-2 19.25-2.7 21.1-3.4 22.2-5.05 23.3-6.7 23.3-9.6L23.3-9.6Q23.15-11.2 22.23-12.6 21.3-14 19.23-14.9 17.15-15.8 13.6-15.8L13.6-15.8 11.55-15.8 11.55-5.85Q11.55-3.35 12.3-2.65 13.05-1.95 15.15-1.95ZM32.7 0.15L32.7 0.15Q32.35 0.15 32.12-0.18 31.9-0.5 31.9-0.85L31.9-0.85Q32-1.6 32.3-1.68 32.6-1.75 33.1-1.75L33.1-1.75Q34.5-1.75 35-2.23 35.5-2.7 35.57-3.5 35.65-4.3 35.65-5.15L35.65-5.15 35.65-16.6Q35.65-17.5 35.57-18.28 35.5-19.05 35-19.53 34.5-20 33.1-20L33.1-20Q32.65-20 32.27-20.13 31.9-20.25 31.9-21L31.9-21Q31.9-21.75 32.7-21.9L32.7-21.9Q35-22.25 36.22-22.6 37.45-22.95 38.07-23.2 38.7-23.45 39.2-23.5L39.2-23.5Q39.6-23.55 39.87-23.35 40.15-23.15 40.15-22.55L40.15-22.55 40.15-19.45 40.3-19.45Q42-21.1 43.8-22.18 45.6-23.25 47.1-23.25L47.1-23.25Q48.85-23.25 49.77-21.95 50.7-20.65 50.7-19.2L50.7-19.2Q50.7-17.95 49.9-16.78 49.1-15.6 47.5-15.6L47.5-15.6Q46.7-15.6 46.22-15.93 45.75-16.25 45.7-16.4L45.7-16.4Q45.7-16.5 46.17-17 46.65-17.5 46.65-18.25L46.65-18.25Q46.65-19.15 46.17-19.7 45.7-20.25 44.9-20.25L44.9-20.25Q44.05-20.25 42.72-19.4 41.4-18.55 40.2-17.35L40.2-17.35 40.2-5.15Q40.2-4.3 40.27-3.5 40.35-2.7 40.87-2.23 41.4-1.75 42.8-1.75L42.8-1.75Q43.25-1.75 43.57-1.68 43.9-1.6 43.95-0.85L43.95-0.85Q43.95-0.5 43.75-0.18 43.55 0.15 43.15 0.15L43.15 0.15Q41.7 0.05 40.47 0.03 39.25 0 37.9 0L37.9 0Q36.55 0 35.35 0.03 34.15 0.05 32.7 0.15ZM65.05 0.6L65.05 0.6Q61.2 0.6 58.57-1.05 55.95-2.7 54.65-5.45 53.34-8.2 53.34-11.45L53.34-11.45Q53.34-13.65 54.12-15.73 54.9-17.8 56.34-19.53 57.8-21.25 59.84-22.25 61.9-23.25 64.5-23.25L64.5-23.25Q69.09-23.25 71.42-20.88 73.75-18.5 74.09-14.85L74.09-14.85Q74.09-13.1 73.12-12.55 72.15-12 70.59-12L70.59-12 58.45-12Q58.45-9.1 59.25-6.83 60.05-4.55 61.77-3.23 63.5-1.9 66.34-1.9L66.34-1.9Q68.45-1.9 69.95-2.8 71.45-3.7 72.84-5.95L72.84-5.95Q73.25-6.45 73.95-6L73.95-6Q74.34-5.8 74.45-5.38 74.55-4.95 74.34-4.65L74.34-4.65Q72.8-2.2 70.45-0.8 68.09 0.6 65.05 0.6ZM58.45-13.9L58.45-13.9 66.59-13.9Q67.8-13.9 68.52-14.38 69.25-14.85 69.3-16L69.3-16Q69.3-18.15 68.12-19.83 66.95-21.5 64.5-21.5L64.5-21.5Q62-21.5 60.32-19.5 58.65-17.5 58.45-13.9ZM90.14 0.6L90.14 0.6Q86.29 0.6 83.67-1.05 81.04-2.7 79.74-5.45 78.44-8.2 78.44-11.45L78.44-11.45Q78.44-13.65 79.22-15.73 79.99-17.8 81.44-19.53 82.89-21.25 84.94-22.25 86.99-23.25 89.59-23.25L89.59-23.25Q94.19-23.25 96.52-20.88 98.84-18.5 99.19-14.85L99.19-14.85Q99.19-13.1 98.22-12.55 97.24-12 95.69-12L95.69-12 83.54-12Q83.54-9.1 84.34-6.83 85.14-4.55 86.87-3.23 88.59-1.9 91.44-1.9L91.44-1.9Q93.54-1.9 95.04-2.8 96.54-3.7 97.94-5.95L97.94-5.95Q98.34-6.45 99.04-6L99.04-6Q99.44-5.8 99.54-5.38 99.64-4.95 99.44-4.65L99.44-4.65Q97.89-2.2 95.54-0.8 93.19 0.6 90.14 0.6ZM83.54-13.9L83.54-13.9 91.69-13.9Q92.89-13.9 93.62-14.38 94.34-14.85 94.39-16L94.39-16Q94.39-18.15 93.22-19.83 92.04-21.5 89.59-21.5L89.59-21.5Q87.09-21.5 85.42-19.5 83.74-17.5 83.54-13.9ZM104.09 0.15L104.09 0.15Q103.69 0.15 103.49-0.18 103.29-0.5 103.29-0.85L103.29-0.85Q103.34-1.6 103.64-1.68 103.94-1.75 104.44-1.75L104.44-1.75Q105.89-1.75 106.47-2.18 107.04-2.6 107.84-4.15L107.84-4.15 114.74-18.5Q115.59-20.35 115.24-20.7 114.89-21.05 113.44-21.05L113.44-21.05 111.34-21.05Q109.79-21.05 108.82-20.65 107.84-20.25 107.29-19 106.74-17.75 106.39-15.25L106.39-15.25Q106.34-14.85 105.89-14.65 105.44-14.45 104.89-14.45L104.89-14.45Q104.54-14.45 104.17-14.68 103.79-14.9 103.79-15.35L103.79-15.35 104.64-21.5Q104.74-22.25 105.04-22.45 105.34-22.65 105.79-22.65L105.79-22.65 119.49-22.65Q120.39-22.65 120.92-22.68 121.44-22.7 122.02-22.73 122.59-22.75 123.54-22.8L123.54-22.8Q123.94-22.8 124.14-22.5 124.34-22.2 124.34-21.8L124.34-21.8Q124.29-21.05 123.97-20.98 123.64-20.9 123.19-20.9L123.19-20.9Q121.79-20.9 121.19-20.5 120.59-20.1 119.74-18.5L119.74-18.5 112.89-4.15Q112.04-2.3 112.42-1.95 112.79-1.6 114.19-1.6L114.19-1.6 116.99-1.6Q118.59-1.6 119.54-2 120.49-2.4 121.07-3.65 121.64-4.9 121.94-7.4L121.94-7.4Q121.99-7.8 122.47-8 122.94-8.2 123.44-8.2L123.44-8.2Q123.84-8.2 124.19-7.98 124.54-7.75 124.54-7.3L124.54-7.3 123.69-1.15Q123.59-0.4 123.29-0.2 122.99 0 122.54 0L122.54 0 108.09 0Q107.24 0 106.69 0.03 106.14 0.05 105.59 0.08 105.04 0.1 104.09 0.15ZM140.34 0.6L140.34 0.6Q136.49 0.6 133.86-1.05 131.24-2.7 129.94-5.45 128.64-8.2 128.64-11.45L128.64-11.45Q128.64-13.65 129.41-15.73 130.19-17.8 131.64-19.53 133.09-21.25 135.14-22.25 137.19-23.25 139.79-23.25L139.79-23.25Q144.39-23.25 146.71-20.88 149.04-18.5 149.39-14.85L149.39-14.85Q149.39-13.1 148.41-12.55 147.44-12 145.89-12L145.89-12 133.74-12Q133.74-9.1 134.54-6.83 135.34-4.55 137.06-3.23 138.79-1.9 141.64-1.9L141.64-1.9Q143.74-1.9 145.24-2.8 146.74-3.7 148.14-5.95L148.14-5.95Q148.54-6.45 149.24-6L149.24-6Q149.64-5.8 149.74-5.38 149.84-4.95 149.64-4.65L149.64-4.65Q148.09-2.2 145.74-0.8 143.39 0.6 140.34 0.6ZM133.74-13.9L133.74-13.9 141.89-13.9Q143.09-13.9 143.81-14.38 144.54-14.85 144.59-16L144.59-16Q144.59-18.15 143.41-19.83 142.24-21.5 139.79-21.5L139.79-21.5Q137.29-21.5 135.61-19.5 133.94-17.5 133.74-13.9Z" opacity="1" transform="matrix(1,0,0,1,0,0)" fill="#ffffff" class="wordmark-text-0" data-fill-palette-color="primary"></path></svg></g><g><svg xmlns="http://www.w3.org/2000/svg" xmlns:xlink="http://www.w3.org/1999/xlink" version="1.1" x="191.552325" y="0" viewBox="9 34.778 82 30.443999999999996" style="enable-background:new 0 0 100 100;" xml:space="preserve" height="39.19605" width="105.57338391801342" class="icon-dxe-0" data-fill-palette-color="accent" id="dxe-0"><g fill="#049a9e" data-fill-palette-color="accent"><path d="M75.778 34.778C67.385 34.778 60.556 41.606 60.556 50A1 1 0 1 0 62.556 50C62.556 42.71 68.487 36.778 75.778 36.778S89 42.71 89 50 83.068 63.222 75.778 63.222H30.133A1 1 0 1 0 30.133 65.222H75.778C84.172 65.222 91 58.394 91 50S84.172 34.778 75.778 34.778" fill="#ffffff" data-fill-palette-color="accent"></path><path d="M22.05 63.222H20.936A1 1 0 1 0 20.936 65.222H22.05A1 1 0 1 0 22.05 63.222" fill="#ffffff" data-fill-palette-color="accent"></path><path d="M55.503 57.531A1 1 0 0 0 54.503 56.531H10A1 1 0 1 0 10 58.531H54.503A1 1 0 0 0 55.503 57.531" fill="#ffffff" data-fill-palette-color="accent"></path><path d="M18.815 51H41.523A1 1 0 1 0 41.523 49H18.815A1 1 0 1 0 18.815 51" fill="#ffffff" data-fill-palette-color="accent"></path><path d="M10 51H12.384A1 1 0 1 0 12.384 49H10A1 1 0 1 0 10 51" fill="#ffffff" data-fill-palette-color="accent"></path></g></svg></g></svg></g></svg></g></svg></g></svg></g></svg></g><defs></defs></svg><rect width="297.1257089180134" height="39.19605" fill="none" stroke="none" visibility="hidden"></rect></g></svg></g></svg>